# xmcd CD database file
#
# Track frame offsets:
#	182
#	17672
#	37870
#	56445
#	90442
#	106010
#	121255
#	146860
#	165912
#	191525
#	221050
#	236547
#	242952
#	262120
#
# Disc length: 3961 seconds
#
# Revision: 4
# Processed by: cddbd v1.5.2PL0 Copyright (c) Steve Scherf et al.
# Submitted via: CDex 1.70
#
DISCID=b60f770e
DTITLE=Peter Schneider Blues Band - Got To Move On...
DYEAR=1992
DGENRE=Blues
TTITLE0=peter schneider blues band - got to move on...
TTITLE1=peter schneider blues band - this ain't love
TTITLE2=peter schneider blues band - downtown
TTITLE3=peter schneider blues band - quitting me
TTITLE4=peter schneider blues band - prohibition blues
TTITLE5=peter schneider blues band - only world
TTITLE6=peter schneider blues band - i hear guitars
TTITLE7=peter schneider blues band - good times 
TTITLE8=peter schneider blues band - evil people
TTITLE9=peter schneider blues band - only child
TTITLE10=peter schneider blues band - no more suffering
TTITLE11=peter schneider blues band - one minute blues
TTITLE12=peter schneider blues band - every dog
TTITLE13=peter schneider blues band - hungry faces
EXTD=YEAR: 1992
EXTT0=
EXTT1=
EXTT2=
EXTT3=
EXTT4=
EXTT5=
EXTT6=
EXTT7=
EXTT8=
EXTT9=
EXTT10=
EXTT11=
EXTT12=
EXTT13=
PLAYORDER=
